<svg width="40" height="40" viewBox="0 0 40 40" fill="none" xmlns="http://www.w3.org/2000/svg">
<path d="M0 6C0 2.68629 2.68629 0 6 0H34C37.3137 0 40 2.68629 40 6V34C40 37.3137 37.3137 40 34 40H6C2.68629 40 0 37.3137 0 34V6Z" fill="#18181B"/>
<path d="M18.5 26.5V22.9947C18.5 22.75 18.75 22.5 19 22.5H21C21.25 22.5 21.5 22.75 21.5 23V26.5C21.5 26.7761 21.7239 27 22 27H26C26.2761 27 26.5 26.7761 26.5 26.5V19.5C26.5 19.3674 26.4473 19.2402 26.3536 19.1464L25 17.7929V14.5C25 14.2239 24.7761 14 24.5 14H23.5C23.2239 14 23 14.2239 23 14.5V15.7929L20.3536 13.1464C20.1583 12.9512 19.8417 12.9512 19.6464 13.1464L13.6464 19.1464C13.5527 19.2402 13.5 19.3674 13.5 19.5V26.5C13.5 26.7761 13.7239 27 14 27H18C18.2761 27 18.5 26.7761 18.5 26.5Z" fill="white"/>
</svg>
