<svg width="14" height="16" viewBox="0 0 14 16" fill="none" xmlns="http://www.w3.org/2000/svg">
<path d="M0 1C0 0.447715 0.447715 0 1 0H11C11.5523 0 12 0.447715 12 1V7.5C12 7.77614 11.7761 8 11.5 8C11.2239 8 11 7.77614 11 7.5V1H1V15H4V12.5C4 12.2239 4.22386 12 4.5 12H6V16H1C0.447715 16 0 15.5523 0 15V1Z" fill="#F8F9FA"/>
<path d="M2.5 2C2.22386 2 2 2.22386 2 2.5V3.5C2 3.77614 2.22386 4 2.5 4H3.5C3.77614 4 4 3.77614 4 3.5V2.5C4 2.22386 3.77614 2 3.5 2H2.5Z" fill="#F8F9FA"/>
<path d="M5.5 2C5.22386 2 5 2.22386 5 2.5V3.5C5 3.77614 5.22386 4 5.5 4H6.5C6.77614 4 7 3.77614 7 3.5V2.5C7 2.22386 6.77614 2 6.5 2H5.5Z" fill="#F8F9FA"/>
<path d="M8.5 2C8.22386 2 8 2.22386 8 2.5V3.5C8 3.77614 8.22386 4 8.5 4H9.5C9.77614 4 10 3.77614 10 3.5V2.5C10 2.22386 9.77614 2 9.5 2H8.5Z" fill="#F8F9FA"/>
<path d="M2.5 5C2.22386 5 2 5.22386 2 5.5V6.5C2 6.77614 2.22386 7 2.5 7H3.5C3.77614 7 4 6.77614 4 6.5V5.5C4 5.22386 3.77614 5 3.5 5H2.5Z" fill="#F8F9FA"/>
<path d="M5.5 5C5.22386 5 5 5.22386 5 5.5V6.5C5 6.77614 5.22386 7 5.5 7H6.5C6.77614 7 7 6.77614 7 6.5V5.5C7 5.22386 6.77614 5 6.5 5H5.5Z" fill="#F8F9FA"/>
<path d="M8.5 5C8.22386 5 8 5.22386 8 5.5V6.5C8 6.77614 8.22386 7 8.5 7H9.5C9.77614 7 10 6.77614 10 6.5V5.5C10 5.22386 9.77614 5 9.5 5H8.5Z" fill="#F8F9FA"/>
<path d="M2.5 8C2.22386 8 2 8.22386 2 8.5V9.5C2 9.77614 2.22386 10 2.5 10H3.5C3.77614 10 4 9.77614 4 9.5V8.5C4 8.22386 3.77614 8 3.5 8H2.5Z" fill="#F8F9FA"/>
<path d="M5.5 8C5.22386 8 5 8.22386 5 8.5V9.5C5 9.77614 5.22386 10 5.5 10H6.5C6.77614 10 7 9.77614 7 9.5V8.5C7 8.22386 6.77614 8 6.5 8H5.5Z" fill="#F8F9FA"/>
<path d="M9.88546 9.45954C10.0661 8.84682 10.9339 8.84682 11.1145 9.45954L11.1583 9.60814C11.2737 9.99964 11.7209 10.1849 12.0793 9.98963L12.2154 9.91553C12.7763 9.60997 13.39 10.2237 13.0845 10.7846L13.0104 10.9207C12.8151 11.2791 13.0004 11.7263 13.3919 11.8417L13.5405 11.8855C14.1532 12.0661 14.1532 12.9339 13.5405 13.1145L13.3919 13.1583C13.0004 13.2737 12.8151 13.7209 13.0104 14.0793L13.0845 14.2154C13.39 14.7763 12.7763 15.39 12.2154 15.0845L12.0793 15.0104C11.7209 14.8151 11.2737 15.0004 11.1583 15.3919L11.1145 15.5405C10.9339 16.1532 10.0661 16.1532 9.88546 15.5405L9.84166 15.3919C9.72627 15.0004 9.27909 14.8151 8.92066 15.0104L8.78462 15.0845C8.22365 15.39 7.60997 14.7763 7.91553 14.2154L7.98963 14.0793C8.18487 13.7209 7.99964 13.2737 7.60814 13.1583L7.45954 13.1145C6.84682 12.9339 6.84682 12.0661 7.45954 11.8855L7.60814 11.8417C7.99964 11.7263 8.18487 11.2791 7.98963 10.9207L7.91553 10.7846C7.60997 10.2237 8.22365 9.60997 8.78462 9.91553L8.92066 9.98963C9.27909 10.1849 9.72627 9.99964 9.84166 9.60814L9.88546 9.45954ZM12 12.5C12 11.6716 11.3284 11 10.5 11C9.67157 11 9 11.6716 9 12.5C9 13.3284 9.67157 14 10.5 14C11.3284 14 12 13.3284 12 12.5Z" fill="#F8F9FA"/>
</svg>
