<svg width="131" height="50" viewBox="0 0 131 50" fill="none" xmlns="http://www.w3.org/2000/svg">
<path fill-rule="evenodd" clip-rule="evenodd" d="M5.11593 36.7601C4.76954 37.0875 4.22332 37.0721 3.89593 36.7257L0.235814 32.8532C-0.0915793 32.5068 -0.0761771 31.9606 0.270215 31.6332L5.25694 26.92V20.2806C5.25694 19.804 5.64332 19.4176 6.11995 19.4176H9.14049C9.61712 19.4176 10.0035 19.804 10.0035 20.2806V22.4337L15.9066 16.8544C17.3223 15.5163 19.5548 15.5793 20.8929 16.995L22.3088 18.4931L28.1011 24.53L23.0108 29.4141L18.1967 24.3968L5.11593 36.7601Z" fill="#010F23"/>
<path d="M17.6523 30.0112C17.2516 32.2216 17.0189 35.8226 19.5785 38.3633C21.0018 39.776 22.7001 41.4618 22.7001 41.4618C22.8287 41.5894 23.0368 41.5886 23.1639 41.4606L23.2731 41.3505C23.4002 41.2225 23.6077 41.2212 23.7363 41.3488L24.4751 42.0822C24.6037 42.2098 24.6039 42.4174 24.4769 42.5454L24.3676 42.6554C24.2405 42.7835 24.2413 42.9915 24.3699 43.1192L26.1771 44.913C26.4337 45.1677 26.8499 45.1661 27.1051 44.909L29.4 42.597C29.6558 42.3392 29.6537 41.9236 29.3972 41.669L27.5899 39.8751C27.4613 39.7474 27.2532 39.7482 27.1261 39.8763L27.0175 39.9857C26.8899 40.1143 26.6823 40.1156 26.5538 39.988L25.8149 39.2546C25.6863 39.127 25.6861 38.9195 25.8137 38.7909L26.1531 38.449L28.0284 36.5597L24.7428 33.2985L23.792 34.2563C23.2816 34.7706 22.4504 34.7737 21.9366 34.2637C21.9366 34.2637 21.698 34.0269 21.6767 34.0057C19.9519 32.2938 19.4147 31.0271 18.9191 29.8017C18.604 29.0209 17.6896 29.0696 17.6523 30.0112Z" fill="#00B286"/>
<path d="M38.3428 20.4656C38.1547 20.279 37.8998 20.1764 37.6346 20.1797C37.3695 20.184 37.1176 20.2951 36.9355 20.4866L25.7204 32.3131L29.006 35.5744L40.7483 24.2711C40.9389 24.088 41.0476 23.8348 41.05 23.5697C41.0518 23.3051 40.9468 23.0504 40.7592 22.8642L38.3428 20.4656Z" fill="#00B286"/>
<path d="M49.3313 36V22.6337H51.8443L53.0595 23.9869C53.6118 23.6187 54.2654 23.2965 55.0202 23.0203C55.7751 22.7441 56.5299 22.6061 57.2848 22.6061L58.3066 26.6381C57.6438 26.6381 56.9626 26.7301 56.263 26.9142C55.5634 27.0983 54.9282 27.4113 54.3574 27.8532V36H49.3313ZM61.8838 29.3168C61.8838 27.0707 62.5742 25.3125 63.955 24.0421C65.3542 22.7718 67.0664 22.1366 69.0916 22.1366C71.2273 22.1366 72.829 22.827 73.8969 24.2078C74.9647 25.5886 75.4986 27.218 75.4986 29.0959V30.8357H67.3518C67.5727 31.3512 67.9041 31.7195 68.346 31.9404C68.8063 32.1613 69.3494 32.2718 69.9754 32.2718C70.5645 32.2718 71.1629 32.2166 71.7704 32.1061C72.3964 31.9956 72.9671 31.8115 73.4826 31.5538L74.8911 34.9506C74.1178 35.5213 73.1604 35.8895 72.019 36.0552C70.8775 36.2209 70.0306 36.3038 69.4783 36.3038C67.3058 36.3038 65.4923 35.7515 64.0378 34.6468C62.6018 33.5237 61.8838 31.7471 61.8838 29.3168ZM70.6934 27.7979C70.675 27.5034 70.5369 27.1628 70.2791 26.7761C70.0214 26.3711 69.5795 26.1686 68.9535 26.1686C68.4933 26.1686 68.1159 26.3159 67.8213 26.6104C67.5451 26.8866 67.3426 27.2824 67.2137 27.7979H70.6934ZM85.2675 26.6933C85.2675 26.8222 85.3319 26.9326 85.4608 27.0247C85.6081 27.0983 85.9211 27.218 86.3998 27.3837C87.5044 27.7703 88.563 28.3042 89.5756 28.9854C90.5882 29.6482 91.0945 30.5964 91.0945 31.8299C91.0945 33.2292 90.6251 34.3246 89.6861 35.1163C88.7656 35.9079 87.3755 36.3038 85.516 36.3038C84.9637 36.3038 84.0616 36.1473 82.8096 35.8343C81.5761 35.5213 80.5727 35.061 79.7994 34.4535L81.2079 31.0014C81.7418 31.2776 82.3862 31.5538 83.141 31.8299C83.9143 32.0877 84.5403 32.2166 85.0189 32.2166C85.3135 32.2166 85.5344 32.1613 85.6817 32.0509C85.829 31.9404 85.9027 31.8391 85.9027 31.7471C85.9027 31.6182 85.829 31.5077 85.6817 31.4157C85.5344 31.3052 85.2583 31.1855 84.8532 31.0567C83.7486 30.67 82.6715 30.1453 81.6221 29.4825C80.5911 28.8013 80.0756 27.844 80.0756 26.6104C80.0756 25.2112 80.6003 24.1158 81.6497 23.3241C82.6992 22.5324 84.1536 22.1366 86.0131 22.1366C86.5655 22.1366 87.3479 22.2747 88.3605 22.5508C89.3915 22.8086 90.2937 23.2412 91.0669 23.8488L89.6585 27.3008C89.1246 27.0247 88.563 26.7761 87.9739 26.5552C87.3847 26.3343 86.8508 26.2238 86.3721 26.2238C85.9671 26.2238 85.6817 26.279 85.516 26.3895C85.3503 26.5 85.2675 26.6012 85.2675 26.6933ZM98.4862 20.7834C97.7498 20.7834 97.1146 20.5164 96.5807 19.9825C96.0468 19.4486 95.7798 18.8134 95.7798 18.077C95.7798 17.3221 96.0468 16.6777 96.5807 16.1438C97.1146 15.5915 97.7498 15.3153 98.4862 15.3153C99.2411 15.3153 99.8855 15.5915 100.419 16.1438C100.972 16.6777 101.248 17.3221 101.248 18.077C101.248 18.8134 100.972 19.4486 100.419 19.9825C99.8855 20.5164 99.2411 20.7834 98.4862 20.7834ZM96.0008 36V22.6061H101.027V36H96.0008ZM115.74 36L113.392 33.1279L111.1 36H105.439L110.355 29.3445L105.439 23.2412L110.631 22.5508L113.227 25.8372L115.823 22.6061H121.374L116.264 29.6206L121.374 36H115.74Z" fill="#061126"/>
<path d="M126.943 30.9462C127.643 30.9462 128.232 31.1948 128.711 31.6918C129.208 32.1705 129.456 32.7689 129.456 33.4869C129.456 34.2049 129.208 34.8033 128.711 35.282C128.232 35.7607 127.643 36 126.943 36C126.225 36 125.618 35.7607 125.12 35.282C124.642 34.8033 124.402 34.2049 124.402 33.4869C124.402 32.7689 124.642 32.1705 125.12 31.6918C125.618 31.1948 126.225 30.9462 126.943 30.9462Z" fill="#00B286"/>
</svg>
