<svg width="14" height="14" viewBox="0 0 14 14" fill="none" xmlns="http://www.w3.org/2000/svg">
<path d="M9 3C9 4.65685 7.65685 6 6 6C4.34315 6 3 4.65685 3 3C3 1.34315 4.34315 0 6 0C7.65685 0 9 1.34315 9 3ZM6 5C7.10457 5 8 4.10457 8 3C8 1.89543 7.10457 1 6 1C4.89543 1 4 1.89543 4 3C4 4.10457 4.89543 5 6 5Z" fill="white"/>
<path d="M6.25606 12C6.14314 11.6805 6.06527 11.3445 6.02708 10.9965H1C1.00142 10.7497 1.15375 10.0104 1.8321 9.33211C2.48435 8.67985 3.71088 8 5.99999 8C6.26049 8 6.50723 8.0088 6.74092 8.02537C6.96608 7.68403 7.23648 7.37517 7.54358 7.10733C7.07708 7.03817 6.56399 7 6 7C1 7 0 10 0 11C0 12 1 12 1 12H6.25606Z" fill="white"/>
<path d="M9.88546 7.45954C10.0661 6.84682 10.9339 6.84682 11.1145 7.45954L11.1583 7.60814C11.2737 7.99964 11.7209 8.18487 12.0793 7.98963L12.2154 7.91553C12.7763 7.60997 13.39 8.22365 13.0845 8.78462L13.0104 8.92066C12.8151 9.27909 13.0004 9.72627 13.3919 9.84166L13.5405 9.88546C14.1532 10.0661 14.1532 10.9339 13.5405 11.1145L13.3919 11.1583C13.0004 11.2737 12.8151 11.7209 13.0104 12.0793L13.0845 12.2154C13.39 12.7763 12.7763 13.39 12.2154 13.0845L12.0793 13.0104C11.7209 12.8151 11.2737 13.0004 11.1583 13.3919L11.1145 13.5405C10.9339 14.1532 10.0661 14.1532 9.88546 13.5405L9.84166 13.3919C9.72627 13.0004 9.27909 12.8151 8.92066 13.0104L8.78462 13.0845C8.22365 13.39 7.60997 12.7763 7.91553 12.2154L7.98963 12.0793C8.18487 11.7209 7.99964 11.2737 7.60814 11.1583L7.45954 11.1145C6.84682 10.9339 6.84682 10.0661 7.45954 9.88546L7.60814 9.84166C7.99964 9.72627 8.18487 9.27909 7.98963 8.92066L7.91553 8.78462C7.60997 8.22365 8.22365 7.60997 8.78462 7.91553L8.92066 7.98963C9.27909 8.18487 9.72627 7.99964 9.84166 7.60814L9.88546 7.45954ZM12 10.5C12 9.67157 11.3284 9 10.5 9C9.67157 9 9 9.67157 9 10.5C9 11.3284 9.67157 12 10.5 12C11.3284 12 12 11.3284 12 10.5Z" fill="white"/>
</svg>
