<svg width="18" height="18" viewBox="0 0 18 18" fill="none" xmlns="http://www.w3.org/2000/svg">
<path d="M6.1875 5.625C5.87684 5.625 5.625 5.87684 5.625 6.1875C5.625 6.49816 5.87684 6.75 6.1875 6.75H11.8125C12.1232 6.75 12.375 6.49816 12.375 6.1875C12.375 5.87684 12.1232 5.625 11.8125 5.625H6.1875Z" fill="#F8F9FA"/>
<path d="M6.1875 7.875C5.87684 7.875 5.625 8.12684 5.625 8.4375C5.625 8.74816 5.87684 9 6.1875 9H9.5625C9.87316 9 10.125 8.74816 10.125 8.4375C10.125 8.12684 9.87316 7.875 9.5625 7.875H6.1875Z" fill="#F8F9FA"/>
<path d="M9 2.25C10.2426 2.25 11.25 1.24264 11.25 0H14.0625C14.9945 0 15.75 0.75552 15.75 1.6875V16.3125C15.75 17.2445 14.9945 18 14.0625 18H3.9375C3.00552 18 2.25 17.2445 2.25 16.3125V1.6875C2.25 0.75552 3.00552 0 3.9375 0H6.75C6.75 1.24264 7.75736 2.25 9 2.25ZM9 3.375C7.5305 3.375 6.28036 2.43584 5.81704 1.125H3.9375C3.62684 1.125 3.375 1.37684 3.375 1.6875V16.3125C3.375 16.6232 3.62684 16.875 3.9375 16.875H14.0625C14.3732 16.875 14.625 16.6232 14.625 16.3125V1.6875C14.625 1.37684 14.3732 1.125 14.0625 1.125H12.183C11.7196 2.43584 10.4695 3.375 9 3.375Z" fill="#F8F9FA"/>
</svg>
